<?xml version="1.0" encoding="utf-8"?>
<!-- Generator: Adobe Illustrator 19.2.0, SVG Export Plug-In . SVG Version: 6.00 Build 0)  -->
<svg version="1.1" id="Layer_1" xmlns="http://www.w3.org/2000/svg" xmlns:xlink="http://www.w3.org/1999/xlink" x="0px" y="0px"
	 viewBox="0 0 595.3 841.9" style="enable-background:new 0 0 595.3 841.9;" xml:space="preserve">
<style type="text/css">
	.st0{fill:none;stroke:#FF0000;stroke-width:0.25;stroke-miterlimit:10;}
	.st1{fill:none;stroke:#FF0000;stroke-width:0.25;stroke-linecap:round;stroke-linejoin:round;stroke-miterlimit:10;}
</style>
<path class="st0" d="M492.7,8H16.5C11.8,8,8,11.8,8,16.5v153.1c0,4.7,3.8,8.5,8.5,8.5h476.2c4.7,0,8.5-3.8,8.5-8.5V16.5
	C501.2,11.8,497.4,8,492.7,8z M26.4,141.2v28.3h-8.5v-28.3H26.4z M17.9,49.1V20.7h8.5v28.3H17.9z M22.2,83.1c-2.3,0-4.3-1.9-4.3-4.3
	c0-2.3,1.9-4.3,4.3-4.3s4.3,1.9,4.3,4.3C26.4,81.2,24.5,83.1,22.2,83.1z M487.1,83.1c-2.3,0-4.3-1.9-4.3-4.3c0-2.3,1.9-4.3,4.3-4.3
	s4.3,1.9,4.3,4.3C491.3,81.2,489.4,83.1,487.1,83.1z M37.8,139.8c-2.3,0-4.3-1.9-4.3-4.3c0-2.3,1.9-4.3,4.3-4.3
	c2.3,0,4.3,1.9,4.3,4.3C42,137.9,40.1,139.8,37.8,139.8z M37.8,54.8c-2.3,0-4.3-1.9-4.3-4.3s1.9-4.3,4.3-4.3c2.3,0,4.3,1.9,4.3,4.3
	S40.1,54.8,37.8,54.8z M471.5,139.8c-2.3,0-4.3-1.9-4.3-4.3c0-2.3,1.9-4.3,4.3-4.3c2.3,0,4.3,1.9,4.3,4.3
	C475.7,137.9,473.8,139.8,471.5,139.8z M471.5,54.8c-2.3,0-4.3-1.9-4.3-4.3s1.9-4.3,4.3-4.3c2.3,0,4.3,1.9,4.3,4.3
	S473.8,54.8,471.5,54.8z M491.3,141.2v28.3h-8.5v-28.3H491.3z M482.8,49.1V20.7h8.5v28.3H482.8z M124.9,20.7H79.6v-8.5h45.4V20.7z
	 M277.3,20.7h-45.4v-8.5h45.4V20.7z M429.7,20.7h-45.4v-8.5h45.4V20.7z M124.9,169.6H79.6v-5.7h45.4V169.6z M277.3,169.6h-45.4v-5.7
	h45.4V169.6z M429.7,169.6h-45.4v-5.7h45.4V169.6z M178.1,20.7c-2.3,0-4.3-1.9-4.3-4.3c0-2.3,1.9-4.3,4.3-4.3s4.3,1.9,4.3,4.3
	C182.3,18.8,180.4,20.7,178.1,20.7z M331.2,20.7c-2.3,0-4.3-1.9-4.3-4.3c0-2.3,1.9-4.3,4.3-4.3c2.3,0,4.3,1.9,4.3,4.3
	C335.4,18.8,333.5,20.7,331.2,20.7z"/>
<path class="st1" d="M341.5,578.1v-8.5h0.1v0h12.7v-85h-12.8V476h-28.3v8.5h-25.4v18.1h3.5v6.5h-3.5v3.7h-8.5v-3.7h-3.6v-6.5h3.6
	v-18.1h-58.2V476h-28.3v8.5h-8.5v85h8.5v8.5h28.3v-8.5h58.1v-18.1h-3.5v-6.5h3.5v-3.7l8.5,0v3.7h3.6v6.5h-3.6v18.1h25.4v8.5H341.5z
	 M272.2,561.1h-28.3v-36.9h28.3V561.1z"/>
<path class="st1" d="M164.3,578v-8.5h0.1v0h12.7v-85h-12.8V476H136v8.5h-25.4v18.1h3.5v6.5h-3.5v3.7h-8.5v-3.7h-3.6v-6.5h3.6v-18.1
	H43.9V476H15.6v8.5H7.1v85h8.5v8.5h28.3v-8.5H102v-18.1h-3.5v-6.5h3.5v-3.7l8.5,0v3.7h3.6v6.5h-3.6v18.1H136v8.5H164.3z"/>
<path class="st0" d="M492.7,192.2H16.5c-4.7,0-8.5,3.8-8.5,8.5v153.1c0,4.7,3.8,8.5,8.5,8.5h476.2c4.7,0,8.5-3.8,8.5-8.5V200.7
	C501.2,196,497.4,192.2,492.7,192.2z M26.4,325.5v28.3h-8.5v-28.3H26.4z M17.9,233.3V205h8.5v28.3H17.9z M22.2,267.4
	c-2.3,0-4.3-1.9-4.3-4.3s1.9-4.3,4.3-4.3s4.3,1.9,4.3,4.3S24.5,267.4,22.2,267.4z M487.1,267.4c-2.3,0-4.3-1.9-4.3-4.3
	s1.9-4.3,4.3-4.3s4.3,1.9,4.3,4.3S489.4,267.4,487.1,267.4z M491.3,325.5v28.3h-8.5v-28.3H491.3z M482.8,233.3V205h8.5v28.3H482.8z
	 M124.9,205H79.6v-8.5h45.4V205z M277.3,205h-45.4v-8.5h45.4V205z M429.7,205h-45.4v-8.5h45.4V205z M124.9,353.8H79.6v-5.7h45.4
	V353.8z M277.3,353.8h-45.4v-5.7h45.4V353.8z M429.7,353.8h-45.4v-5.7h45.4V353.8z M178.1,205c-2.3,0-4.3-1.9-4.3-4.3
	c0-2.3,1.9-4.3,4.3-4.3s4.3,1.9,4.3,4.3C182.3,203.1,180.4,205,178.1,205z M331.2,205c-2.3,0-4.3-1.9-4.3-4.3c0-2.3,1.9-4.3,4.3-4.3
	c2.3,0,4.3,1.9,4.3,4.3C335.4,203.1,333.5,205,331.2,205z"/>
<g>
	<polygon points="242.9,268.1 242.6,267.8 242.3,267.5 241.9,267.2 241.4,267.1 241,267.1 240.5,267.2 240.1,267.3 239.7,267.6 
		239.4,267.9 239.1,268.3 239,268.8 238.9,269.2 239,269.7 239.1,270.1 239.4,270.5 239.7,270.8 240.1,271.1 240.5,271.3 241,271.3 
		241.4,271.3 241.9,271.2 242.3,271 242.6,270.7 242.9,270.3 243.1,269.9 243.2,269.4 243.2,269 243.1,268.5 	"/>
	<polygon points="270,268.1 269.7,267.8 269.4,267.5 268.9,267.2 268.5,267.1 268,267.1 267.6,267.2 267.2,267.3 266.8,267.6 
		266.5,267.9 266.2,268.3 266.1,268.8 266,269.2 266.1,269.7 266.2,270.1 266.5,270.5 266.8,270.8 267.2,271.1 267.6,271.3 
		268,271.3 268.5,271.3 268.9,271.2 269.4,271 269.7,270.7 270,270.3 270.2,269.9 270.3,269.4 270.3,269 270.2,268.5 	"/>
	<path d="M260.4,273.9h-11.6c-0.6,0-1.2,0.5-1.2,1.2c0,0.6,0.5,1.2,1.2,1.2h11.6c0.6,0,1.2-0.5,1.2-1.2
		C261.6,274.4,261.1,273.9,260.4,273.9z"/>
	<path d="M227.7,306.7c0-0.1,0-0.1-0.1-0.2c0,0,0,0,0,0c0-0.1-0.1-0.1-0.1-0.2c0,0,0,0,0,0c0-0.1-0.1-0.1-0.1-0.2v0l-3.9-3.9
		c-0.1-0.1-0.1-0.1-0.2-0.1c-0.2-0.1-0.4-0.2-0.6-0.2c-0.1,0-0.3,0-0.4,0.1c-0.1,0.1-0.3,0.1-0.4,0.3l-3.9,3.9l0,0
		c-0.1,0.1-0.1,0.1-0.1,0.2c0,0,0,0,0,0c0,0.1-0.1,0.1-0.1,0.2c0,0,0,0,0,0c0,0.1,0,0.1-0.1,0.2c0,0,0,0,0,0c0,0.1,0,0.1,0,0.2v3.9
		v3.9c0,0.6,0.5,1.2,1.2,1.2c0.6,0,1.2-0.5,1.2-1.2V312h5.4v2.7c0,0.6,0.5,1.2,1.2,1.2c0.6,0,1.2-0.5,1.2-1.2v-3.9V307
		C227.7,306.9,227.7,306.8,227.7,306.7C227.7,306.7,227.7,306.7,227.7,306.7z M220,307.4l2.7-2.7l2.7,2.7v2.2H220V307.4z"/>
	<path d="M239.9,306.1c-0.5-0.5-1.2-0.5-1.6,0l-3,3l-3-3c-0.5-0.5-1.2-0.5-1.6,0c-0.5,0.5-0.5,1.2,0,1.6l3,3l-3,3
		c-0.5,0.5-0.5,1.2,0,1.6c0.2,0.2,0.5,0.3,0.8,0.3c0.3,0,0.6-0.1,0.8-0.3l3-3l3,3c0.2,0.2,0.5,0.3,0.8,0.3c0.3,0,0.6-0.1,0.8-0.3
		c0.5-0.5,0.5-1.2,0-1.6l-3-3l3-3C240.4,307.3,240.4,306.6,239.9,306.1z"/>
	<path d="M251.9,308.7c0-0.1,0-0.1-0.1-0.2c0,0,0,0,0,0c0-0.1-0.1-0.1-0.1-0.2c0,0,0,0,0,0c0-0.1-0.1-0.1-0.1-0.2l0,0l-1.9-1.9l0,0
		c-0.1-0.1-0.1-0.1-0.2-0.1c0,0,0,0,0,0c-0.1,0-0.1-0.1-0.2-0.1c0,0,0,0,0,0c-0.1,0-0.1,0-0.2-0.1c0,0,0,0,0,0c-0.1,0-0.1,0-0.2,0
		l0,0h-3.9l0,0c-0.1,0-0.1,0-0.2,0c0,0,0,0,0,0c-0.1,0-0.1,0-0.2,0.1c0,0,0,0,0,0c-0.1,0-0.1,0.1-0.2,0.1c0,0,0,0,0,0
		c-0.1,0-0.1,0.1-0.2,0.1l0,0l-1.9,1.9v0c-0.1,0.1-0.1,0.1-0.1,0.2c0,0,0,0,0,0c0,0.1-0.1,0.1-0.1,0.2c0,0,0,0,0,0
		c0,0.1,0,0.1-0.1,0.2c0,0,0,0,0,0c0,0.1,0,0.1,0,0.2v3.9c0,0.1,0,0.1,0,0.2c0,0,0,0,0,0c0,0.1,0,0.1,0.1,0.2c0,0,0,0,0,0
		c0,0.1,0.1,0.1,0.1,0.2c0,0,0,0,0,0c0,0.1,0.1,0.1,0.1,0.2l0,0l1.9,1.9l0,0c0.1,0.1,0.1,0.1,0.2,0.1c0,0,0,0,0,0
		c0.1,0,0.1,0.1,0.2,0.1c0,0,0,0,0,0c0.1,0,0.1,0,0.2,0.1c0,0,0,0,0,0c0.1,0,0.1,0,0.2,0h3.9c0.1,0,0.1,0,0.2,0c0,0,0,0,0,0
		c0.1,0,0.1,0,0.2-0.1c0,0,0,0,0,0c0.1,0,0.1-0.1,0.2-0.1c0,0,0,0,0,0c0.1,0,0.1-0.1,0.2-0.1l0,0l1.9-1.9c0,0,0,0,0,0
		c0.1-0.1,0.1-0.1,0.1-0.2c0,0,0,0,0,0c0-0.1,0.1-0.1,0.1-0.2c0,0,0,0,0,0c0-0.1,0-0.1,0.1-0.2c0,0,0,0,0,0c0-0.1,0-0.1,0-0.2v-3.9
		C251.9,308.8,251.9,308.7,251.9,308.7C251.9,308.7,251.9,308.7,251.9,308.7z M245.4,313.5l-1.2-1.2v-2.9l1.2-1.2h2.9l1.2,1.2v2.9
		l-1.2,1.2H245.4z"/>
	<path d="M258.5,313.5h-0.8v-10.5c0-0.6-0.5-1.2-1.2-1.2h-1.9c-0.6,0-1.2,0.5-1.2,1.2c0,0.6,0.5,1.2,1.2,1.2h0.8v9.3h-0.8
		c-0.6,0-1.2,0.5-1.2,1.2s0.5,1.2,1.2,1.2h3.9c0.6,0,1.2-0.5,1.2-1.2S259.1,313.5,258.5,313.5z"/>
	<path d="M271.3,308.9c0-0.1,0-0.1,0-0.2c0,0,0,0,0,0c0-0.1,0-0.1-0.1-0.2c0,0,0,0,0,0c0-0.1-0.1-0.1-0.1-0.2c0,0,0,0,0,0
		c0-0.1-0.1-0.1-0.1-0.2c0,0,0,0,0,0l-1.9-1.9c0,0,0,0,0,0c-0.1-0.1-0.1-0.1-0.2-0.1c0,0,0,0,0,0c-0.1,0-0.1-0.1-0.2-0.1
		c0,0,0,0,0,0c-0.1,0-0.1,0-0.2-0.1c0,0,0,0,0,0c-0.1,0-0.1,0-0.2,0h-3.9c-0.1,0-0.1,0-0.2,0c0,0,0,0,0,0c-0.1,0-0.1,0-0.2,0.1
		c0,0,0,0,0,0c-0.1,0-0.1,0.1-0.2,0.1c0,0,0,0,0,0c-0.1,0-0.1,0.1-0.2,0.1c0,0,0,0,0,0l-1.9,1.9c0,0,0,0,0,0
		c-0.1,0.1-0.1,0.1-0.1,0.2c0,0,0,0,0,0c0,0.1-0.1,0.1-0.1,0.2c0,0,0,0,0,0c0,0.1,0,0.1-0.1,0.2c0,0,0,0,0,0c0,0.1,0,0.1,0,0.2l0,0
		v3.9l0,0c0,0.1,0,0.1,0,0.2c0,0,0,0,0,0c0,0.1,0,0.1,0.1,0.2c0,0,0,0,0,0c0,0.1,0.1,0.1,0.1,0.2c0,0,0,0,0,0c0,0.1,0.1,0.1,0.1,0.2
		c0,0,0,0,0,0l1.9,1.9c0,0,0,0,0,0c0.1,0.1,0.1,0.1,0.2,0.1c0,0,0,0,0,0c0.1,0,0.1,0.1,0.2,0.1c0,0,0,0,0,0c0.1,0,0.1,0,0.2,0.1
		c0,0,0,0,0,0c0.1,0,0.1,0,0.2,0h3.9c0.1,0,0.1,0,0.2,0c0,0,0,0,0,0c0.1,0,0.1,0,0.2-0.1c0,0,0,0,0,0c0.1,0,0.1-0.1,0.2-0.1
		c0,0,0,0,0,0c0.1,0,0.1-0.1,0.2-0.1c0,0,0,0,0,0l1.9-1.9c0,0,0,0,0,0c0.1-0.1,0.1-0.1,0.1-0.2c0,0,0,0,0,0c0-0.1,0.1-0.1,0.1-0.2
		c0,0,0,0,0,0c0-0.1,0-0.1,0.1-0.2c0,0,0,0,0,0c0-0.1,0-0.1,0-0.2v0V308.9L271.3,308.9z M264.8,313.5l-1.2-1.2v-2.9l1.2-1.2h2.9
		l1.2,1.2v2.9l-1.2,1.2H264.8z"/>
	<path d="M277.1,308.1h1.7c0.6,0,1.2-0.5,1.2-1.2c0-0.6-0.5-1.2-1.2-1.2h-1.7v-2.7c0-0.6-0.5-1.2-1.2-1.2c-0.6,0-1.2,0.5-1.2,1.2
		v2.7H274c-0.6,0-1.2,0.5-1.2,1.2c0,0.6,0.5,1.2,1.2,1.2h0.8v4.6l0,0c0,0.1,0,0.1,0,0.2c0,0,0,0,0,0c0,0.1,0,0.1,0.1,0.2
		c0,0,0,0,0,0c0,0.1,0.1,0.1,0.1,0.2c0,0,0,0,0,0c0,0.1,0.1,0.1,0.1,0.2c0,0,0,0,0,0l1.9,1.9c0,0,0,0,0,0c0.1,0.1,0.1,0.1,0.2,0.1
		c0,0,0,0,0,0c0.1,0,0.1,0.1,0.2,0.1c0,0,0,0,0,0c0.1,0,0.1,0,0.2,0.1c0,0,0,0,0,0c0.1,0,0.1,0,0.2,0h1c0.6,0,1.2-0.5,1.2-1.2
		s-0.5-1.2-1.2-1.2h-0.5l-1.2-1.2V308.1z"/>
	<path d="M287.5,313.5h-0.8V307c0-0.6-0.5-1.2-1.2-1.2h-1.9c-0.6,0-1.2,0.5-1.2,1.2c0,0.6,0.5,1.2,1.2,1.2h0.8v5.4h-0.8
		c-0.6,0-1.2,0.5-1.2,1.2s0.5,1.2,1.2,1.2h1.9h1.9c0.6,0,1.2-0.5,1.2-1.2S288.2,313.5,287.5,313.5z"/>
	<path d="M286.7,302.2L286.7,302.2c0-0.7-0.5-1.2-1.2-1.2c-0.6,0-1.2,0.5-1.2,1.2v0c0,0.6,0.5,1.2,1.2,1.2
		C286.2,303.3,286.7,302.8,286.7,302.2z"/>
	<path d="M292.5,291.7l-7.3-3.3l-2.6-2.6c0,0,0,0,0,0c-0.1-0.1-0.1-0.1-0.2-0.1c0,0,0,0,0,0c-0.1,0-0.1-0.1-0.2-0.1c0,0,0,0,0,0
		c-0.1,0-0.1,0-0.2-0.1c0,0,0,0,0,0c-0.1,0-0.1,0-0.2,0h-6.4l0.3-0.3c0,0,0,0,0-0.1l0.5-0.7c0,0,0,0,0,0l0.5-0.7c0,0,0,0,0-0.1
		l0.4-0.7c0,0,0,0,0-0.1l0.4-0.7c0,0,0,0,0-0.1l0.3-0.8c0,0,0,0,0,0l0.3-0.8c0,0,0,0,0-0.1l0.2-0.8c0,0,0,0,0-0.1l0.2-0.8
		c0,0,0,0,0-0.1l0.2-0.8c0,0,0,0,0-0.1l0.1-0.8c0,0,0-0.1,0-0.1l0.1-0.8c0,0,0,0,0,0l0-0.8c0,0,0,0,0-0.1l0-0.8c0,0,0,0,0,0
		l-0.1-0.8c0,0,0-0.1,0-0.1l-0.1-0.8c0,0,0,0,0-0.1l-0.2-0.8c0,0,0,0,0-0.1l-0.2-0.8c0,0,0,0,0-0.1l-0.2-0.8c0,0,0,0,0-0.1l-0.3-0.8
		c0,0,0,0,0,0l-0.3-0.8c0,0,0,0,0-0.1l-0.1-0.3l6.9-4l-1.2,1.4c-0.4,0.5-0.3,1.2,0.2,1.6c0.2,0.2,0.5,0.3,0.7,0.3
		c0.3,0,0.7-0.1,0.9-0.4l5.2-6.4c0,0,0,0,0,0c0,0,0,0,0,0c0,0,0,0,0,0c0,0,0,0,0,0c0,0,0,0,0,0c0,0,0,0,0,0c0,0,0,0,0,0c0,0,0,0,0,0
		c0,0,0,0,0,0c0,0,0,0,0,0c0,0,0,0,0,0c0,0,0,0,0,0c0,0,0,0,0,0c0,0,0,0,0,0c0,0,0,0,0,0c0,0,0,0,0,0c0,0,0,0,0,0c0,0,0,0,0,0
		c0,0,0,0,0,0c0,0,0,0,0,0c0,0,0,0,0,0c0,0,0,0,0,0c0,0,0,0,0,0c0,0,0,0,0,0c0,0,0,0,0,0c0,0,0,0,0,0c0,0,0,0,0,0c0,0,0,0,0,0
		c0,0,0,0,0,0c0,0,0,0,0,0c0,0,0,0,0,0c0,0,0,0,0,0c0,0,0,0,0,0c0,0,0,0,0,0c0,0,0,0,0,0c0,0,0,0,0,0c0,0,0,0,0,0c0,0,0,0,0,0
		c0,0,0,0,0,0c0,0,0,0,0,0c0,0,0,0,0,0c0,0,0,0,0,0c0,0,0,0,0,0c0,0,0,0,0,0c0,0,0,0,0,0c0,0,0,0,0,0c0,0,0,0,0,0c0,0,0,0,0,0
		c0,0,0,0,0,0c0,0,0,0,0,0c0,0,0,0,0,0c0,0,0,0,0,0c0,0,0,0,0,0c0,0,0,0,0,0c0,0,0,0,0,0c0,0,0,0,0,0c0,0,0,0,0,0c0,0,0,0,0,0
		c0,0,0,0,0,0c0,0,0,0,0,0c0,0,0,0,0,0c0,0,0,0,0,0c0,0,0,0-0.1,0c0,0,0,0,0,0c0,0,0,0,0,0c0,0,0,0-0.1,0c0,0,0,0,0,0c0,0,0,0,0,0
		c0,0,0,0-0.1,0c0,0,0,0,0,0c0,0,0,0,0,0c0,0,0,0,0,0c0,0,0,0,0,0c0,0,0,0,0,0c0,0,0,0,0,0c0,0,0,0,0,0c0,0,0,0-0.1,0c0,0,0,0,0,0
		l-8.1,1.4c-0.6,0.1-1.1,0.7-1,1.3c0.1,0.6,0.6,1,1.1,1c0.1,0,0.1,0,0.2,0l1.8-0.3l-6.9,4l0,0c0,0,0,0,0,0l-0.5-0.7c0,0,0,0,0-0.1
		l-0.5-0.7c0,0,0,0,0-0.1l-0.6-0.6c0,0,0,0,0,0l-0.6-0.6c0,0,0,0-0.1,0l-0.6-0.6c0,0,0,0,0,0l-0.7-0.5c0,0,0,0,0,0l-0.7-0.5
		c0,0,0,0,0,0l0,0l4-6.9l-0.3,1.8c-0.1,0.6,0.3,1.2,1,1.3c0.1,0,0.1,0,0.2,0c0.6,0,1.1-0.4,1.1-1l1.4-8.2c0,0,0,0,0,0c0,0,0,0,0,0
		c0,0,0,0,0,0c0,0,0,0,0,0c0,0,0,0,0,0c0,0,0,0,0,0c0,0,0,0,0,0c0,0,0,0,0,0c0,0,0,0,0,0c0,0,0,0,0,0c0,0,0,0,0,0c0,0,0,0,0,0
		c0,0,0,0,0,0c0,0,0,0,0,0c0,0,0,0,0,0c0,0,0,0,0,0c0,0,0,0,0,0c0,0,0,0,0,0c0,0,0,0,0,0c0,0,0,0,0,0c0,0,0,0,0,0c0,0,0,0,0,0
		c0,0,0,0,0,0c0,0,0,0,0,0c0,0,0,0,0,0c0,0,0,0,0,0c0,0,0,0,0,0c0,0,0,0,0,0c0,0,0,0,0,0c0,0,0,0,0,0c0,0,0,0,0,0c0,0,0,0,0,0
		c0,0,0,0,0,0c0,0,0,0,0,0c0,0,0,0,0,0c0,0,0,0,0,0c0,0,0,0,0,0c0,0,0,0,0,0c0,0,0,0,0,0c0,0,0,0,0,0c0,0,0,0,0,0c0,0,0,0,0,0
		c0,0,0,0,0,0c0,0,0,0,0,0c0,0,0,0,0,0c0,0,0,0,0,0c0,0,0,0,0,0c0,0,0,0,0,0c0,0,0,0-0.1,0c0,0,0,0,0,0c0,0,0,0,0,0c0,0,0,0,0,0
		c0,0,0,0-0.1,0c0,0,0,0,0,0c0,0,0,0,0,0c0,0,0,0,0,0c0,0,0,0,0,0c0,0,0,0-0.1,0c0,0,0,0,0,0c0,0,0,0,0,0c0,0,0,0-0.1,0c0,0,0,0,0,0
		l0,0c0,0,0,0,0,0c0,0,0,0-0.1,0c0,0,0,0,0,0c0,0,0,0,0,0c0,0,0,0,0,0c0,0,0,0-0.1,0c0,0,0,0,0,0c0,0,0,0,0,0c0,0,0,0,0,0
		c0,0,0,0-0.1,0c0,0,0,0,0,0c0,0,0,0,0,0c0,0,0,0,0,0c0,0,0,0-0.1,0c0,0,0,0,0,0c0,0,0,0,0,0c0,0,0,0,0,0c0,0,0,0,0,0c0,0,0,0,0,0
		c0,0,0,0,0,0c0,0,0,0,0,0l0,0c0,0,0,0,0,0l-6.4,5.2c-0.5,0.4-0.6,1.1-0.2,1.6c0.2,0.3,0.6,0.4,0.9,0.4c0.3,0,0.5-0.1,0.7-0.3
		l1.4-1.2l-4,6.9l-0.3-0.1c0,0,0,0-0.1,0l-0.8-0.3c0,0,0,0,0,0l-0.8-0.3c0,0,0,0-0.1,0l-0.8-0.2c0,0,0,0-0.1,0l-0.8-0.2c0,0,0,0,0,0
		l-0.8-0.2c0,0-0.1,0-0.1,0l-0.8-0.1c0,0,0,0,0,0l-0.8-0.1c0,0,0,0-0.1,0l-0.8,0c0,0,0,0,0,0c0,0,0,0,0,0h-15.5c0,0,0,0,0,0
		c0,0,0,0,0,0l-0.8,0c0,0,0,0-0.1,0l-0.8,0.1c0,0,0,0,0,0l-0.8,0.1c0,0-0.1,0-0.1,0l-0.8,0.2c0,0,0,0-0.1,0l-0.8,0.2c0,0,0,0-0.1,0
		l-0.8,0.2c0,0,0,0-0.1,0l-0.8,0.3c0,0,0,0,0,0l-0.8,0.3c0,0,0,0-0.1,0l-0.3,0.1l-4-6.9l1.4,1.2c0.2,0.2,0.5,0.3,0.7,0.3
		c0.3,0,0.7-0.1,0.9-0.4c0.4-0.5,0.3-1.2-0.2-1.6l-6.4-5.3c0,0,0,0,0,0c0,0,0,0,0,0c0,0,0,0,0,0c0,0,0,0,0,0c0,0,0,0,0,0
		c0,0,0,0,0,0c0,0,0,0,0,0c0,0,0,0,0,0c0,0,0,0,0,0c0,0,0,0,0,0c0,0,0,0,0,0c0,0,0,0,0,0c0,0,0,0,0,0c0,0,0,0,0,0c0,0,0,0,0,0
		c0,0,0,0,0,0c0,0,0,0,0,0c0,0,0,0-0.1,0c0,0,0,0,0,0c0,0,0,0,0,0c0,0,0,0,0,0c0,0,0,0,0,0c0,0,0,0,0,0c0,0,0,0,0,0c0,0,0,0,0,0
		c0,0,0,0-0.1,0c0,0,0,0,0,0c0,0,0,0,0,0c0,0,0,0,0,0c0,0,0,0-0.1,0c0,0,0,0,0,0c0,0,0,0,0,0c0,0,0,0-0.1,0c0,0,0,0,0,0c0,0,0,0,0,0
		c0,0,0,0,0,0c0,0,0,0,0,0c0,0,0,0,0,0c0,0,0,0,0,0c0,0,0,0,0,0c0,0,0,0,0,0c0,0,0,0,0,0c0,0,0,0,0,0c0,0,0,0,0,0c0,0,0,0,0,0
		c0,0,0,0,0,0c0,0,0,0,0,0c0,0,0,0,0,0c0,0,0,0,0,0c0,0,0,0,0,0c0,0,0,0,0,0c0,0,0,0,0,0c0,0,0,0,0,0c0,0,0,0,0,0c0,0,0,0,0,0
		c0,0,0,0,0,0c0,0,0,0,0,0c0,0,0,0,0,0c0,0,0,0,0,0c0,0,0,0,0,0c0,0,0,0,0,0c0,0,0,0,0,0c0,0,0,0,0,0c0,0,0,0,0,0c0,0,0,0,0,0
		c0,0,0,0,0,0c0,0,0,0,0,0c0,0,0,0,0,0c0,0,0,0,0,0c0,0,0,0,0,0c0,0,0,0,0,0c0,0,0,0,0,0c0,0,0,0,0,0c0,0,0,0,0,0c0,0,0,0,0,0
		c0,0,0,0,0,0c0,0,0,0,0,0c0,0,0,0,0,0l1.4,8.2c0.1,0.6,0.6,1,1.1,1c0.1,0,0.1,0,0.2,0c0.6-0.1,1.1-0.7,1-1.3l-0.3-1.8l4,6.9l0,0
		c0,0,0,0-0.1,0l-0.7,0.5c0,0,0,0,0,0l-0.7,0.5c0,0,0,0,0,0l-0.6,0.6c0,0,0,0-0.1,0l-0.6,0.6c0,0,0,0,0,0l-0.6,0.6c0,0,0,0-0.1,0.1
		l-0.5,0.7c0,0,0,0,0,0l-0.5,0.7c0,0,0,0,0,0.1l0,0l-6.9-4l1.8,0.3c0.1,0,0.1,0,0.2,0c0.6,0,1.1-0.4,1.1-1c0.1-0.6-0.3-1.2-1-1.3
		l-8.1-1.4c0,0,0,0,0,0c0,0,0,0-0.1,0c0,0,0,0,0,0c0,0,0,0,0,0c0,0,0,0,0,0c0,0,0,0,0,0c0,0,0,0,0,0c0,0,0,0,0,0c0,0,0,0,0,0
		c0,0,0,0,0,0c0,0,0,0,0,0c0,0,0,0,0,0c0,0,0,0,0,0c0,0,0,0,0,0c0,0,0,0,0,0c0,0,0,0,0,0c0,0,0,0,0,0c0,0,0,0,0,0c0,0,0,0,0,0
		c0,0,0,0,0,0c0,0,0,0,0,0c0,0,0,0,0,0c0,0,0,0,0,0c0,0,0,0,0,0c0,0,0,0,0,0c0,0,0,0,0,0c0,0,0,0,0,0c0,0,0,0,0,0c0,0,0,0,0,0
		c0,0,0,0,0,0c0,0,0,0,0,0c0,0,0,0,0,0c0,0,0,0,0,0c0,0,0,0,0,0c0,0,0,0,0,0c0,0,0,0,0,0c0,0,0,0,0,0c0,0,0,0,0,0c0,0,0,0,0,0
		c0,0,0,0,0,0c0,0,0,0,0,0c0,0,0,0,0,0c0,0,0,0,0,0c0,0,0,0,0,0c0,0,0,0,0,0c0,0,0,0,0,0c0,0,0,0,0,0c0,0,0,0,0,0c0,0,0,0,0,0.1
		c0,0,0,0,0,0c0,0,0,0,0,0c0,0,0,0,0,0c0,0,0,0,0,0.1c0,0,0,0,0,0c0,0,0,0,0,0c0,0,0,0,0,0c0,0,0,0,0,0c0,0,0,0,0,0c0,0,0,0,0,0
		c0,0,0,0,0,0c0,0,0,0,0,0c0,0,0,0,0,0c0,0,0,0,0,0c0,0,0,0,0,0c0,0,0,0,0,0c0,0,0,0,0,0c0,0,0,0,0,0c0,0,0,0,0,0c0,0,0,0,0,0
		c0,0,0,0,0,0c0,0,0,0,0,0c0,0,0,0,0,0c0,0,0,0,0,0c0,0,0,0,0,0c0,0,0,0,0,0c0,0,0,0,0,0c0,0,0,0,0,0c0,0,0,0,0,0l5.3,6.4
		c0.2,0.3,0.6,0.4,0.9,0.4c0.3,0,0.5-0.1,0.7-0.3c0.5-0.4,0.6-1.1,0.2-1.6l-1.2-1.4l6.9,4l-0.1,0.3c0,0,0,0,0,0.1l-0.3,0.8
		c0,0,0,0,0,0l-0.3,0.8c0,0,0,0,0,0.1l-0.2,0.8c0,0,0,0,0,0.1l-0.2,0.8c0,0,0,0,0,0.1l-0.2,0.8c0,0,0,0.1,0,0.1l-0.1,0.8
		c0,0,0,0,0,0l-0.1,0.8c0,0,0,0,0,0.1l0,0.8c0,0,0,0,0,0.1l0,0.8c0,0,0,0,0,0.1l0.1,0.8c0,0,0,0,0,0l0.1,0.8c0,0,0,0.1,0,0.1
		l0.2,0.8c0,0,0,0,0,0.1l0.2,0.8c0,0,0,0,0,0.1l0.2,0.8c0,0,0,0,0,0.1l0.3,0.8c0,0,0,0,0,0l0.3,0.8c0,0,0,0,0,0.1l0.4,0.7
		c0,0,0,0,0,0.1l0.4,0.7c0,0,0,0,0,0.1l0.5,0.7c0,0,0,0,0,0.1l0.5,0.7c0,0,0,0,0,0l0.3,0.4h-6.4l0,0c0,0,0,0,0,0c-0.1,0-0.1,0-0.2,0
		c0,0,0,0,0,0c-0.1,0-0.1,0-0.2,0.1c0,0,0,0,0,0c-0.1,0-0.1,0.1-0.2,0.1c0,0,0,0,0,0c-0.1,0-0.1,0.1-0.2,0.1l0,0l-2.6,2.6l-7.3,3.3
		c-0.6,0.3-0.8,1-0.6,1.5c0.2,0.4,0.6,0.7,1.1,0.7c0.2,0,0.3,0,0.5-0.1l1.7-0.8l-0.9,0.9c-0.5,0.5-0.5,1.2,0,1.6
		c0.2,0.2,0.5,0.3,0.8,0.3c0.3,0,0.6-0.1,0.8-0.3l0.9-0.9l-0.8,1.7c-0.3,0.6,0,1.3,0.6,1.5c0.2,0.1,0.3,0.1,0.5,0.1
		c0.4,0,0.9-0.3,1.1-0.7l3.3-7.3l2.2-2.2h8.2l0.6,0.5c0,0,0,0,0,0l0.7,0.5c0,0,0,0,0.1,0l0.7,0.5c0,0,0,0,0.1,0l0.7,0.4
		c0,0,0,0,0.1,0l0.7,0.4c0,0,0,0,0.1,0l0.8,0.3c0,0,0,0,0,0l0.8,0.3c0,0,0,0,0.1,0l0.8,0.2c0,0,0,0,0.1,0l0.8,0.2c0,0,0,0,0.1,0
		l0.8,0.2c0,0,0.1,0,0.1,0l0.8,0.1c0,0,0,0,0,0l0.8,0.1c0,0,0,0,0.1,0l0.8,0c0,0,0,0,0,0h0h15.5h0c0,0,0,0,0,0l0.8,0c0,0,0,0,0.1,0
		l0.8-0.1c0,0,0,0,0,0l0.8-0.1c0,0,0.1,0,0.1,0l0.8-0.2c0,0,0,0,0,0l0.8-0.2c0,0,0,0,0.1,0l0.8-0.2c0,0,0,0,0.1,0l0.8-0.3
		c0,0,0,0,0,0l0.8-0.3c0,0,0,0,0.1,0l0.7-0.4c0,0,0,0,0,0l0.7-0.4c0,0,0,0,0.1,0l0.7-0.5c0,0,0,0,0,0l0.7-0.5c0,0,0,0,0,0l0.6-0.5
		h8.2l2.2,2.2l3.3,7.3c0.2,0.4,0.6,0.7,1.1,0.7c0.2,0,0.3,0,0.5-0.1c0.6-0.3,0.8-1,0.6-1.5l-0.8-1.7l0.9,0.9
		c0.2,0.2,0.5,0.3,0.8,0.3c0.3,0,0.6-0.1,0.8-0.3c0.5-0.5,0.5-1.2,0-1.6l-0.9-1l1.7,0.8c0.2,0.1,0.3,0.1,0.5,0.1
		c0.4,0,0.9-0.3,1.1-0.7C293.3,292.7,293,292,292.5,291.7z M271.6,285.9l-0.6,0.5l-0.6,0.5l-0.6,0.4l-0.7,0.4l-0.7,0.3l-0.7,0.3
		l-0.7,0.3l-0.7,0.2l-0.8,0.2l-0.8,0.2l-0.8,0.1l-0.8,0.1l-0.8,0h-15.5l-0.8,0l-0.8-0.1l-0.8-0.1l-0.8-0.2l-0.8-0.2l-0.7-0.2
		l-0.7-0.3l-0.7-0.3l-0.7-0.3l-0.7-0.4l-0.7-0.4l-0.6-0.5l-0.6-0.5l-0.6-0.5l-0.6-0.6l-0.5-0.6l-0.5-0.6l-0.5-0.6l-0.4-0.7l-0.4-0.7
		l-0.3-0.7l-0.3-0.7l-0.3-0.7l-0.2-0.7l-0.2-0.8l-0.2-0.8l-0.1-0.8l-0.1-0.8l0-0.8l0-0.8l0.1-0.8l0.1-0.8l0.2-0.8l0.2-0.8l0.2-0.7
		l0.3-0.7l0.3-0.7l0.3-0.7l0.4-0.7l0.4-0.7l0.5-0.6l0.5-0.6l0.5-0.6l0.6-0.6l0.6-0.5l0.6-0.5l0.6-0.5l0.7-0.4l0.7-0.4l0.7-0.3
		l0.7-0.3l0.7-0.3l0.7-0.2l0.8-0.2l0.8-0.2l0.8-0.1l0.8-0.1l0.8,0h15.5l0.8,0l0.8,0.1l0.8,0.1l0.8,0.2l0.8,0.2l0.7,0.2l0.7,0.3
		l0.7,0.3l0.7,0.3l0.7,0.4l0.6,0.4l0.6,0.5l0.6,0.5l0.6,0.5l0.6,0.6l0.5,0.6l0.5,0.6l0.4,0.6l0.4,0.7l0.4,0.7l0.3,0.7l0.3,0.7
		l0.3,0.7l0.2,0.7l0.2,0.8l0.2,0.8l0.1,0.8l0.1,0.8l0,0.8l0,0.8l-0.1,0.8l-0.1,0.8l-0.2,0.8l-0.2,0.8l-0.2,0.7l-0.3,0.7l-0.3,0.7
		l-0.3,0.7l-0.4,0.7l-0.4,0.7l-0.4,0.6l-0.5,0.6l-0.5,0.6l-0.6,0.6L271.6,285.9z"/>
</g>
<g>
	<path d="M90.6,327.4h-2.7l-0.7,2.3H86l2.6-7.9H90l2.6,7.9h-1.3L90.6,327.4z M90.3,326.5l-0.3-1.1c-0.3-0.9-0.5-1.7-0.7-2.6h0
		c-0.2,0.9-0.5,1.8-0.7,2.6l-0.3,1.1H90.3z"/>
	<path d="M93.8,321.8H95v4.9c0,1.4,0.6,2,1.5,2c0.9,0,1.5-0.6,1.5-2v-4.9h1.2v4.9c0,2.2-1.1,3.1-2.7,3.1c-1.6,0-2.7-0.9-2.7-3.1
		V321.8z"/>
	<path d="M101,321.8h2c2.3,0,3.7,1.3,3.7,3.9c0,2.5-1.3,4-3.6,4h-2V321.8z M102.9,328.7c1.6,0,2.5-1,2.5-3c0-2-0.9-2.9-2.5-2.9h-0.7
		v5.9H102.9z"/>
	<path d="M108.3,328.7h1.9v-5.8h-1.9v-1h5v1h-1.9v5.8h1.9v1h-5V328.7z"/>
	<path d="M115,325.7c0-2.5,1.3-4,3.1-4c1.8,0,3.1,1.5,3.1,4c0,2.5-1.3,4.1-3.1,4.1C116.3,329.8,115,328.3,115,325.7z M119.9,325.7
		c0-1.9-0.7-3-1.8-3s-1.8,1.1-1.8,3c0,1.9,0.7,3.1,1.8,3.1S119.9,327.6,119.9,325.7z"/>
</g>
<g>
	<path d="M386.7,321.7h1.3l1,3.2l0.4,1.2h0l0.3-1.2l1-3.2h1.3v7.9h-1v-3.9c0-0.7,0.1-2,0.2-2.7h0l-0.5,1.8l-1,2.7H389l-1-2.7
		l-0.5-1.8h0c0.1,0.7,0.2,2,0.2,2.7v3.9h-1V321.7z"/>
	<path d="M394,328.5h1.9v-5.8H394v-1h5v1h-1.9v5.8h1.9v1h-5V328.5z"/>
	<path d="M401.1,321.7h2c2.3,0,3.7,1.3,3.7,3.9c0,2.5-1.3,4-3.6,4h-2V321.7z M403,328.6c1.6,0,2.5-1,2.5-3c0-2-0.9-2.9-2.5-2.9h-0.7
		v5.9H403z"/>
	<path d="M408.4,328.5h1.9v-5.8h-1.9v-1h5v1h-1.9v5.8h1.9v1h-5V328.5z"/>
</g>
<g>
	<path d="M72,340.2h1.6v-4.9H72v-0.8h4.2v0.8h-1.6v4.9h1.6v0.8H72V340.2z"/>
	<path d="M77.9,334.5h1l1.9,3.9l0.6,1.4h0c0-0.7-0.1-1.4-0.1-2.1v-3.1h0.9v6.5h-1l-1.9-3.9l-0.6-1.4h0c0,0.7,0.1,1.4,0.1,2.1v3.1
		h-0.9V334.5z"/>
</g>
<g>
	<path d="M123.6,337.8c0-2.1,1-3.4,2.5-3.4c1.5,0,2.5,1.3,2.5,3.4c0,2.1-1,3.4-2.5,3.4C124.7,341.3,123.6,339.9,123.6,337.8z
		 M127.7,337.8c0-1.5-0.6-2.5-1.5-2.5c-0.9,0-1.5,0.9-1.5,2.5c0,1.5,0.6,2.5,1.5,2.5C127.1,340.4,127.7,339.4,127.7,337.8z"/>
	<path d="M129.9,334.6h1v4.1c0,1.2,0.5,1.7,1.2,1.7c0.7,0,1.3-0.5,1.3-1.7v-4.1h1v4.1c0,1.8-0.9,2.6-2.2,2.6c-1.4,0-2.3-0.8-2.3-2.6
		V334.6z"/>
	<path d="M137.7,335.4h-2.1v-0.8h5.2v0.8h-2.1v5.7h-1V335.4z"/>
</g>
<g>
	<path d="M365.8,340.2h1.6v-4.9h-1.6v-0.8h4.2v0.8h-1.6v4.9h1.6v0.8h-4.2V340.2z"/>
	<path d="M371.7,334.5h1l1.9,3.9l0.6,1.4h0c0-0.7-0.1-1.4-0.1-2.1v-3.1h0.9v6.5h-1l-1.9-3.9l-0.6-1.4h0c0,0.7,0.1,1.4,0.1,2.1v3.1
		h-0.9V334.5z"/>
</g>
<g>
	<path d="M419.9,337.8c0-2.1,1-3.4,2.5-3.4c1.5,0,2.5,1.3,2.5,3.4c0,2.1-1,3.4-2.5,3.4C420.9,341.3,419.9,339.9,419.9,337.8z
		 M424,337.8c0-1.5-0.6-2.5-1.5-2.5c-0.9,0-1.5,0.9-1.5,2.5c0,1.5,0.6,2.5,1.5,2.5C423.3,340.4,424,339.4,424,337.8z"/>
	<path d="M426.2,334.6h1v4.1c0,1.2,0.5,1.7,1.2,1.7c0.7,0,1.3-0.5,1.3-1.7v-4.1h1v4.1c0,1.8-0.9,2.6-2.2,2.6c-1.4,0-2.3-0.8-2.3-2.6
		V334.6z"/>
	<path d="M433.9,335.4h-2.1v-0.8h5.2v0.8h-2.1v5.7h-1V335.4z"/>
</g>
<polygon class="st0" points="410.3,376.5 410.3,368 364.9,368 364.9,376.5 316.1,376.5 316.1,394.6 319.6,394.6 319.6,401.1 
	316.1,401.1 316.1,404.8 307.6,404.8 307.6,401.1 304,401.1 304,394.6 307.6,394.6 307.6,376.5 257.9,376.5 257.9,368 212.6,368 
	212.6,376.5 163.1,376.5 163.1,394.7 166.5,394.7 166.5,401.2 163.1,401.2 163.1,404.9 154.6,404.9 154.6,401.2 150.9,401.2 
	150.9,394.7 154.6,394.7 154.6,376.5 105.6,376.5 105.6,368 60.2,368 60.2,376.5 7.1,376.5 7.1,461.5 60.2,461.5 60.2,470 
	105.6,470 105.6,461.5 154.4,461.5 154.4,443.5 150.9,443.5 150.9,436.9 154.4,436.9 154.4,433.2 162.9,433.2 162.9,436.9 
	166.5,436.9 166.5,443.5 162.9,443.5 162.9,461.5 212.6,461.5 212.6,470 257.9,470 257.9,461.5 307.5,461.5 307.5,443.4 304,443.4 
	304,436.9 307.5,436.9 307.5,433.2 316,433.2 316,436.9 319.6,436.9 319.6,443.4 316,443.4 316,461.5 364.9,461.5 364.9,470 
	410.3,470 410.3,461.5 463.4,461.5 463.4,376.5 "/>
<path class="st0" d="M381.5,481.7c-6.3,0-11.3,5.1-11.3,11.3c0,6.3,5.1,11.3,11.3,11.3c6.3,0,11.3-5.1,11.3-11.3
	C392.9,486.7,387.8,481.7,381.5,481.7z M381.5,497.3c-2.3,0-4.3-1.9-4.3-4.3s1.9-4.3,4.3-4.3c2.3,0,4.3,1.9,4.3,4.3
	S383.9,497.3,381.5,497.3z"/>
<path class="st0" d="M381.5,511.9c-6.3,0-11.3,5.1-11.3,11.3s5.1,11.3,11.3,11.3c6.3,0,11.3-5.1,11.3-11.3S387.8,511.9,381.5,511.9z
	 M381.5,527.5c-2.3,0-4.3-1.9-4.3-4.3c0-2.3,1.9-4.3,4.3-4.3c2.3,0,4.3,1.9,4.3,4.3C385.8,525.6,383.9,527.5,381.5,527.5z"/>
<path class="st0" d="M411.5,511.9c-6.3,0-11.3,5.1-11.3,11.3s5.1,11.3,11.3,11.3c6.3,0,11.3-5.1,11.3-11.3S417.8,511.9,411.5,511.9z
	 M411.5,527.5c-2.3,0-4.3-1.9-4.3-4.3c0-2.3,1.9-4.3,4.3-4.3s4.3,1.9,4.3,4.3C415.8,525.6,413.9,527.5,411.5,527.5z"/>
<path class="st0" d="M411.5,481.7c-6.3,0-11.3,5.1-11.3,11.3c0,6.3,5.1,11.3,11.3,11.3c6.3,0,11.3-5.1,11.3-11.3
	C422.9,486.7,417.8,481.7,411.5,481.7z M411.5,497.3c-2.3,0-4.3-1.9-4.3-4.3s1.9-4.3,4.3-4.3s4.3,1.9,4.3,4.3
	S413.9,497.3,411.5,497.3z"/>
</svg>
