<?xml version="1.0" encoding="utf-8"?>
<!-- Generator: Adobe Illustrator 19.0.1, SVG Export Plug-In . SVG Version: 6.00 Build 0)  -->
<svg version="1.1" id="Layer_1" xmlns="http://www.w3.org/2000/svg" xmlns:xlink="http://www.w3.org/1999/xlink" x="0px" y="0px"
	 viewBox="0 0 595.3 841.9" style="enable-background:new 0 0 595.3 841.9;" xml:space="preserve">
<style type="text/css">
	.st0{fill:none;stroke:#FF0000;stroke-width:0.25;stroke-miterlimit:10;}
	.st1{fill:none;stroke:#FF0000;stroke-width:0.25;stroke-linecap:round;stroke-linejoin:round;stroke-miterlimit:10;}
</style>
<g>
	<circle class="st0" cx="419.9" cy="62.9" r="19.2"/>
	<circle class="st0" cx="362.4" cy="62.9" r="19.2"/>
	<circle class="st0" cx="123.6" cy="68.3" r="16.3"/>
	<circle class="st0" cx="68.6" cy="68.3" r="16.3"/>
	<rect x="213.1" y="85.7" class="st1" width="40.6" height="5.7"/>
	<rect x="256.2" y="49.5" class="st1" width="20" height="42"/>
	<rect x="186.6" y="83.2" class="st1" width="22.7" height="8.8"/>
	<circle class="st1" cx="167.7" cy="84.3" r="7.4"/>
	<rect x="317" y="86.9" class="st1" width="9.9" height="4.5"/>
	<rect x="301.9" y="86.9" class="st1" width="9.9" height="4.5"/>
	<rect x="291.7" y="88.6" class="st1" width="4.5" height="2.8"/>
	<rect x="281.3" y="88.6" class="st1" width="4.5" height="2.8"/>
	<polygon class="st0" points="472.8,19.4 419.7,19.4 419.7,10.9 374.3,10.9 374.3,19.4 267.3,19.4 267.3,10.9 221.9,10.9 
		221.9,19.4 114.9,19.4 114.9,10.9 69.6,10.9 69.6,19.4 16.4,19.4 16.4,104.5 69.6,104.5 69.6,113 114.9,113 114.9,104.5 
		221.9,104.5 221.9,113 267.3,113 267.3,104.5 374.3,104.5 374.3,113 419.7,113 419.7,104.5 472.8,104.5 	"/>
</g>
</svg>
